<svg xmlns="http://www.w3.org/2000/svg" viewBox="0 0 400 500" fill="none">
  <rect width="400" height="500" fill="#111111"/>
  <rect x="1" y="1" width="398" height="498" stroke="rgba(192,160,96,0.15)" stroke-width="1"/>
  <!-- Gothic grid -->
  <line x1="0" y1="50" x2="400" y2="50" stroke="rgba(192,160,96,0.04)" stroke-width="1"/>
  <line x1="0" y1="100" x2="400" y2="100" stroke="rgba(192,160,96,0.04)" stroke-width="1"/>
  <line x1="0" y1="150" x2="400" y2="150" stroke="rgba(192,160,96,0.04)" stroke-width="1"/>
  <line x1="0" y1="200" x2="400" y2="200" stroke="rgba(192,160,96,0.04)" stroke-width="1"/>
  <line x1="0" y1="250" x2="400" y2="250" stroke="rgba(192,160,96,0.04)" stroke-width="1"/>
  <line x1="0" y1="300" x2="400" y2="300" stroke="rgba(192,160,96,0.04)" stroke-width="1"/>
  <line x1="0" y1="350" x2="400" y2="350" stroke="rgba(192,160,96,0.04)" stroke-width="1"/>
  <line x1="0" y1="400" x2="400" y2="400" stroke="rgba(192,160,96,0.04)" stroke-width="1"/>
  <line x1="0" y1="450" x2="400" y2="450" stroke="rgba(192,160,96,0.04)" stroke-width="1"/>
  <line x1="50" y1="0" x2="50" y2="500" stroke="rgba(192,160,96,0.04)" stroke-width="1"/>
  <line x1="100" y1="0" x2="100" y2="500" stroke="rgba(192,160,96,0.04)" stroke-width="1"/>
  <line x1="150" y1="0" x2="150" y2="500" stroke="rgba(192,160,96,0.04)" stroke-width="1"/>
  <line x1="200" y1="0" x2="200" y2="500" stroke="rgba(192,160,96,0.04)" stroke-width="1"/>
  <line x1="250" y1="0" x2="250" y2="500" stroke="rgba(192,160,96,0.04)" stroke-width="1"/>
  <line x1="300" y1="0" x2="300" y2="500" stroke="rgba(192,160,96,0.04)" stroke-width="1"/>
  <line x1="350" y1="0" x2="350" y2="500" stroke="rgba(192,160,96,0.04)" stroke-width="1"/>
  <!-- V letter -->
  <text x="200" y="270" font-family="serif" font-size="120" fill="rgba(192,160,96,0.12)" text-anchor="middle" dominant-baseline="middle" letter-spacing="8">V</text>
  <!-- Label -->
  <text x="200" y="460" font-family="serif" font-size="11" fill="rgba(192,160,96,0.3)" text-anchor="middle" letter-spacing="6">VALIO</text>
</svg>
